%
M48
M72
T01C0.0120
T02C0.0400
T03C0.0492
T04C0.1300
%
T01
X5609Y7284
X5603Y7678
X5375Y8875
X9100Y7950
X10200Y8375
X10375Y7678
X9875Y6675
X10875Y6675
X10375Y4875
X15575Y8875
X15803Y7678
X15809Y7284
X19300Y7950
X20400Y8375
X20575Y7678
X20075Y6675
X21075Y6675
X20575Y4875
X26009Y7284
X26003Y7678
X25775Y8875
X29500Y7950
X30600Y8375
X30775Y7678
X30275Y6675
X31275Y6675
X30775Y4875
X30775Y15075
X30275Y16875
X31275Y16875
X30775Y17878
X30600Y18575
X29500Y18150
X26003Y17878
X26009Y17484
X25775Y19075
X21075Y16875
X20075Y16875
X20575Y17878
X20400Y18575
X19300Y18150
X20575Y15075
X15809Y17484
X15803Y17878
X15575Y19075
X10875Y16875
X9875Y16875
X10375Y17878
X10200Y18575
X9100Y18150
X10375Y15075
X5609Y17484
X5603Y17878
X5375Y19075
X10375Y25275
X9875Y27075
X10875Y27075
X10375Y28078
X10200Y28775
X9100Y28350
X5603Y28078
X5609Y27684
X5375Y29275
X15575Y29275
X15803Y28078
X15809Y27684
X19300Y28350
X20400Y28775
X20575Y28078
X20075Y27075
X21075Y27075
X20575Y25275
X26009Y27684
X26003Y28078
X25775Y29275
X29500Y28350
X30600Y28775
X30775Y28078
X30275Y27075
X31275Y27075
X30775Y25275
T02
X29775Y23775
X28775Y23775
X27775Y23775
X26775Y23775
X19575Y23775
X18575Y23775
X17575Y23775
X16575Y23775
X9375Y23775
X8375Y23775
X7375Y23775
X6375Y23775
X6375Y13575
X7375Y13575
X8375Y13575
X9375Y13575
X16575Y13575
X17575Y13575
X18575Y13575
X19575Y13575
X26775Y13575
X27775Y13575
X28775Y13575
X29775Y13575
X29775Y3375
X28775Y3375
X27775Y3375
X26775Y3375
X19575Y3375
X18575Y3375
X17575Y3375
X16575Y3375
X9375Y3375
X8375Y3375
X7375Y3375
X6375Y3375
T03
X7875Y6725
X8688Y7062
X7062Y8688
X7875Y9025
X7875Y16925
X8688Y17262
X7875Y19225
X7062Y18888
X7875Y27125
X8688Y27462
X7062Y29088
X7875Y29425
X17262Y29088
X18075Y29425
X18888Y27462
X18075Y27125
X18075Y19225
X17262Y18888
X18888Y17262
X18075Y16925
X18075Y9025
X17262Y8688
X18888Y7062
X18075Y6725
X27462Y8688
X28275Y9025
X29088Y7062
X28275Y6725
X28275Y16925
X29088Y17262
X28275Y19225
X27462Y18888
X28275Y27125
X29088Y27462
X27462Y29088
X28275Y29425
T04
X3875Y3875
X11875Y3875
X14075Y3875
X22075Y3875
X24275Y3875
X32275Y3875
X32275Y11875
X32275Y14075
X24275Y14075
X22075Y14075
X22075Y11875
X24275Y11875
X14075Y11875
X11875Y11875
X11875Y14075
X14075Y14075
X14075Y22075
X14075Y24275
X11875Y24275
X11875Y22075
X3875Y22075
X3875Y24275
X3875Y32275
X11875Y32275
X14075Y32275
X22075Y32275
X24275Y32275
X32275Y32275
X32275Y24275
X32275Y22075
X24275Y22075
X24275Y24275
X22075Y24275
X22075Y22075
X3875Y14075
X3875Y11875
M30
