G75*
%MOIN*%
%OFA0B0*%
%FSLAX25Y25*%
%IPPOS*%
%LPD*%
%AMOC8*
5,1,8,0,0,1.08239X$1,22.5*
%
%ADD10R,0.05131X0.04737*%
%ADD11C,0.01421*%
%ADD12R,0.08674X0.05524*%
%ADD13R,0.06115X0.03162*%
%ADD14C,0.08200*%
%ADD15R,0.04737X0.05131*%
%ADD16C,0.08182*%
%ADD17C,0.13800*%
%ADD18C,0.03300*%
%ADD19C,0.04737*%
%ADD20C,0.05000*%
%ADD21C,0.06706*%
D10*
X0035404Y0061250D03*
X0042096Y0061250D03*
X0047654Y0096250D03*
X0047654Y0102000D03*
X0054346Y0102000D03*
X0054346Y0096250D03*
X0042096Y0163250D03*
X0035404Y0163250D03*
X0047654Y0198250D03*
X0047654Y0204000D03*
X0054346Y0204000D03*
X0054346Y0198250D03*
X0042096Y0265250D03*
X0035404Y0265250D03*
X0047654Y0300250D03*
X0047654Y0306000D03*
X0054346Y0306000D03*
X0054346Y0300250D03*
X0137404Y0265250D03*
X0144096Y0265250D03*
X0149654Y0300250D03*
X0156346Y0300250D03*
X0156346Y0306000D03*
X0149654Y0306000D03*
X0239404Y0265250D03*
X0246096Y0265250D03*
X0251654Y0300250D03*
X0251654Y0306000D03*
X0258346Y0306000D03*
X0258346Y0300250D03*
X0258346Y0204000D03*
X0258346Y0198250D03*
X0251654Y0198250D03*
X0251654Y0204000D03*
X0246096Y0163250D03*
X0239404Y0163250D03*
X0251654Y0102000D03*
X0251654Y0096250D03*
X0258346Y0096250D03*
X0258346Y0102000D03*
X0246096Y0061250D03*
X0239404Y0061250D03*
X0156346Y0096250D03*
X0149654Y0096250D03*
X0149654Y0102000D03*
X0156346Y0102000D03*
X0144096Y0061250D03*
X0137404Y0061250D03*
X0137404Y0163250D03*
X0144096Y0163250D03*
X0149654Y0198250D03*
X0149654Y0204000D03*
X0156346Y0204000D03*
X0156346Y0198250D03*
D11*
X0142545Y0159658D02*
X0142545Y0156342D01*
X0142545Y0159658D02*
X0145861Y0159658D01*
X0145861Y0156342D01*
X0142545Y0156342D01*
X0142545Y0157762D02*
X0145861Y0157762D01*
X0145861Y0159182D02*
X0142545Y0159182D01*
X0135639Y0159658D02*
X0135639Y0156342D01*
X0135639Y0159658D02*
X0138955Y0159658D01*
X0138955Y0156342D01*
X0135639Y0156342D01*
X0135639Y0157762D02*
X0138955Y0157762D01*
X0138955Y0159182D02*
X0135639Y0159182D01*
X0040545Y0159658D02*
X0040545Y0156342D01*
X0040545Y0159658D02*
X0043861Y0159658D01*
X0043861Y0156342D01*
X0040545Y0156342D01*
X0040545Y0157762D02*
X0043861Y0157762D01*
X0043861Y0159182D02*
X0040545Y0159182D01*
X0033639Y0159658D02*
X0033639Y0156342D01*
X0033639Y0159658D02*
X0036955Y0159658D01*
X0036955Y0156342D01*
X0033639Y0156342D01*
X0033639Y0157762D02*
X0036955Y0157762D01*
X0036955Y0159182D02*
X0033639Y0159182D01*
X0033639Y0258342D02*
X0033639Y0261658D01*
X0036955Y0261658D01*
X0036955Y0258342D01*
X0033639Y0258342D01*
X0033639Y0259762D02*
X0036955Y0259762D01*
X0036955Y0261182D02*
X0033639Y0261182D01*
X0040545Y0261658D02*
X0040545Y0258342D01*
X0040545Y0261658D02*
X0043861Y0261658D01*
X0043861Y0258342D01*
X0040545Y0258342D01*
X0040545Y0259762D02*
X0043861Y0259762D01*
X0043861Y0261182D02*
X0040545Y0261182D01*
X0135639Y0261658D02*
X0135639Y0258342D01*
X0135639Y0261658D02*
X0138955Y0261658D01*
X0138955Y0258342D01*
X0135639Y0258342D01*
X0135639Y0259762D02*
X0138955Y0259762D01*
X0138955Y0261182D02*
X0135639Y0261182D01*
X0142545Y0261658D02*
X0142545Y0258342D01*
X0142545Y0261658D02*
X0145861Y0261658D01*
X0145861Y0258342D01*
X0142545Y0258342D01*
X0142545Y0259762D02*
X0145861Y0259762D01*
X0145861Y0261182D02*
X0142545Y0261182D01*
X0237639Y0261658D02*
X0237639Y0258342D01*
X0237639Y0261658D02*
X0240955Y0261658D01*
X0240955Y0258342D01*
X0237639Y0258342D01*
X0237639Y0259762D02*
X0240955Y0259762D01*
X0240955Y0261182D02*
X0237639Y0261182D01*
X0244545Y0261658D02*
X0244545Y0258342D01*
X0244545Y0261658D02*
X0247861Y0261658D01*
X0247861Y0258342D01*
X0244545Y0258342D01*
X0244545Y0259762D02*
X0247861Y0259762D01*
X0247861Y0261182D02*
X0244545Y0261182D01*
X0244545Y0159658D02*
X0244545Y0156342D01*
X0244545Y0159658D02*
X0247861Y0159658D01*
X0247861Y0156342D01*
X0244545Y0156342D01*
X0244545Y0157762D02*
X0247861Y0157762D01*
X0247861Y0159182D02*
X0244545Y0159182D01*
X0237639Y0159658D02*
X0237639Y0156342D01*
X0237639Y0159658D02*
X0240955Y0159658D01*
X0240955Y0156342D01*
X0237639Y0156342D01*
X0237639Y0157762D02*
X0240955Y0157762D01*
X0240955Y0159182D02*
X0237639Y0159182D01*
X0237639Y0057658D02*
X0237639Y0054342D01*
X0237639Y0057658D02*
X0240955Y0057658D01*
X0240955Y0054342D01*
X0237639Y0054342D01*
X0237639Y0055762D02*
X0240955Y0055762D01*
X0240955Y0057182D02*
X0237639Y0057182D01*
X0244545Y0057658D02*
X0244545Y0054342D01*
X0244545Y0057658D02*
X0247861Y0057658D01*
X0247861Y0054342D01*
X0244545Y0054342D01*
X0244545Y0055762D02*
X0247861Y0055762D01*
X0247861Y0057182D02*
X0244545Y0057182D01*
X0142545Y0057658D02*
X0142545Y0054342D01*
X0142545Y0057658D02*
X0145861Y0057658D01*
X0145861Y0054342D01*
X0142545Y0054342D01*
X0142545Y0055762D02*
X0145861Y0055762D01*
X0145861Y0057182D02*
X0142545Y0057182D01*
X0135639Y0057658D02*
X0135639Y0054342D01*
X0135639Y0057658D02*
X0138955Y0057658D01*
X0138955Y0054342D01*
X0135639Y0054342D01*
X0135639Y0055762D02*
X0138955Y0055762D01*
X0138955Y0057182D02*
X0135639Y0057182D01*
X0040545Y0057658D02*
X0040545Y0054342D01*
X0040545Y0057658D02*
X0043861Y0057658D01*
X0043861Y0054342D01*
X0040545Y0054342D01*
X0040545Y0055762D02*
X0043861Y0055762D01*
X0043861Y0057182D02*
X0040545Y0057182D01*
X0033639Y0057658D02*
X0033639Y0054342D01*
X0033639Y0057658D02*
X0036955Y0057658D01*
X0036955Y0054342D01*
X0033639Y0054342D01*
X0033639Y0055762D02*
X0036955Y0055762D01*
X0036955Y0057182D02*
X0033639Y0057182D01*
D12*
X0034281Y0067726D03*
X0034281Y0089774D03*
X0034281Y0169726D03*
X0034281Y0191774D03*
X0034281Y0271726D03*
X0034281Y0293774D03*
X0123219Y0293774D03*
X0136281Y0293774D03*
X0136281Y0271726D03*
X0123219Y0271726D03*
X0123219Y0191774D03*
X0136281Y0191774D03*
X0136281Y0169726D03*
X0123219Y0169726D03*
X0123219Y0089774D03*
X0136281Y0089774D03*
X0136281Y0067726D03*
X0123219Y0067726D03*
X0225219Y0067726D03*
X0238281Y0067726D03*
X0238281Y0089774D03*
X0225219Y0089774D03*
X0225219Y0169726D03*
X0238281Y0169726D03*
X0238281Y0191774D03*
X0225219Y0191774D03*
X0225219Y0271726D03*
X0238281Y0271726D03*
X0238281Y0293774D03*
X0225219Y0293774D03*
X0327219Y0293774D03*
X0327219Y0271726D03*
X0327219Y0191774D03*
X0327219Y0169726D03*
X0327219Y0089774D03*
X0327219Y0067726D03*
D13*
X0312750Y0072844D03*
X0312750Y0076781D03*
X0312750Y0080719D03*
X0312750Y0084656D03*
X0252750Y0084656D03*
X0252750Y0080719D03*
X0252750Y0076781D03*
X0252750Y0072844D03*
X0210750Y0072844D03*
X0210750Y0076781D03*
X0210750Y0080719D03*
X0210750Y0084656D03*
X0150750Y0084656D03*
X0150750Y0080719D03*
X0150750Y0076781D03*
X0150750Y0072844D03*
X0108750Y0072844D03*
X0108750Y0076781D03*
X0108750Y0080719D03*
X0108750Y0084656D03*
X0048750Y0084656D03*
X0048750Y0080719D03*
X0048750Y0076781D03*
X0048750Y0072844D03*
X0048750Y0174844D03*
X0048750Y0178781D03*
X0048750Y0182719D03*
X0048750Y0186656D03*
X0108750Y0186656D03*
X0108750Y0182719D03*
X0108750Y0178781D03*
X0108750Y0174844D03*
X0150750Y0174844D03*
X0150750Y0178781D03*
X0150750Y0182719D03*
X0150750Y0186656D03*
X0210750Y0186656D03*
X0210750Y0182719D03*
X0210750Y0178781D03*
X0210750Y0174844D03*
X0252750Y0174844D03*
X0252750Y0178781D03*
X0252750Y0182719D03*
X0252750Y0186656D03*
X0312750Y0186656D03*
X0312750Y0182719D03*
X0312750Y0178781D03*
X0312750Y0174844D03*
X0312750Y0276844D03*
X0312750Y0280781D03*
X0312750Y0284719D03*
X0312750Y0288656D03*
X0252750Y0288656D03*
X0252750Y0284719D03*
X0252750Y0280781D03*
X0252750Y0276844D03*
X0210750Y0276844D03*
X0210750Y0280781D03*
X0210750Y0284719D03*
X0210750Y0288656D03*
X0150750Y0288656D03*
X0150750Y0284719D03*
X0150750Y0280781D03*
X0150750Y0276844D03*
X0108750Y0276844D03*
X0108750Y0280781D03*
X0108750Y0284719D03*
X0108750Y0288656D03*
X0048750Y0288656D03*
X0048750Y0284719D03*
X0048750Y0280781D03*
X0048750Y0276844D03*
D14*
X0063750Y0237750D03*
X0073750Y0237750D03*
X0083750Y0237750D03*
X0093750Y0237750D03*
X0165750Y0237750D03*
X0175750Y0237750D03*
X0185750Y0237750D03*
X0195750Y0237750D03*
X0267750Y0237750D03*
X0277750Y0237750D03*
X0287750Y0237750D03*
X0297750Y0237750D03*
X0297750Y0135750D03*
X0287750Y0135750D03*
X0277750Y0135750D03*
X0267750Y0135750D03*
X0195750Y0135750D03*
X0185750Y0135750D03*
X0175750Y0135750D03*
X0165750Y0135750D03*
X0093750Y0135750D03*
X0083750Y0135750D03*
X0073750Y0135750D03*
X0063750Y0135750D03*
X0063750Y0033750D03*
X0073750Y0033750D03*
X0083750Y0033750D03*
X0093750Y0033750D03*
X0165750Y0033750D03*
X0175750Y0033750D03*
X0185750Y0033750D03*
X0195750Y0033750D03*
X0267750Y0033750D03*
X0277750Y0033750D03*
X0287750Y0033750D03*
X0297750Y0033750D03*
D15*
X0302750Y0055404D03*
X0302750Y0062096D03*
X0312750Y0062096D03*
X0312750Y0055404D03*
X0210750Y0055404D03*
X0210750Y0062096D03*
X0200750Y0062096D03*
X0200750Y0055404D03*
X0108750Y0055404D03*
X0108750Y0062096D03*
X0098750Y0062096D03*
X0098750Y0055404D03*
X0098750Y0157404D03*
X0098750Y0164096D03*
X0108750Y0164096D03*
X0108750Y0157404D03*
X0200750Y0157404D03*
X0200750Y0164096D03*
X0210750Y0164096D03*
X0210750Y0157404D03*
X0302750Y0157404D03*
X0302750Y0164096D03*
X0312750Y0164096D03*
X0312750Y0157404D03*
X0312750Y0259404D03*
X0312750Y0266096D03*
X0302750Y0266096D03*
X0302750Y0259404D03*
X0210750Y0259404D03*
X0210750Y0266096D03*
X0200750Y0266096D03*
X0200750Y0259404D03*
X0108750Y0259404D03*
X0108750Y0266096D03*
X0098750Y0266096D03*
X0098750Y0259404D03*
D16*
X0086879Y0274621D03*
X0078750Y0271254D03*
X0070621Y0290879D03*
X0078750Y0294246D03*
X0172621Y0290879D03*
X0180750Y0294246D03*
X0188879Y0274621D03*
X0180750Y0271254D03*
X0180750Y0192246D03*
X0172621Y0188879D03*
X0188879Y0172621D03*
X0180750Y0169254D03*
X0180750Y0090246D03*
X0172621Y0086879D03*
X0188879Y0070621D03*
X0180750Y0067254D03*
X0086879Y0070621D03*
X0078750Y0067254D03*
X0070621Y0086879D03*
X0078750Y0090246D03*
X0078750Y0169254D03*
X0086879Y0172621D03*
X0078750Y0192246D03*
X0070621Y0188879D03*
X0274621Y0188879D03*
X0282750Y0192246D03*
X0290879Y0172621D03*
X0282750Y0169254D03*
X0282750Y0090246D03*
X0274621Y0086879D03*
X0290879Y0070621D03*
X0282750Y0067254D03*
X0282750Y0271254D03*
X0290879Y0274621D03*
X0274621Y0290879D03*
X0282750Y0294246D03*
D17*
X0038750Y0038750D03*
X0118750Y0038750D03*
X0140750Y0038750D03*
X0220750Y0038750D03*
X0242750Y0038750D03*
X0322750Y0038750D03*
X0322750Y0118750D03*
X0322750Y0140750D03*
X0242750Y0140750D03*
X0220750Y0140750D03*
X0220750Y0118750D03*
X0242750Y0118750D03*
X0140750Y0118750D03*
X0118750Y0118750D03*
X0118750Y0140750D03*
X0140750Y0140750D03*
X0140750Y0220750D03*
X0140750Y0242750D03*
X0118750Y0242750D03*
X0118750Y0220750D03*
X0038750Y0220750D03*
X0038750Y0242750D03*
X0038750Y0322750D03*
X0118750Y0322750D03*
X0140750Y0322750D03*
X0220750Y0322750D03*
X0242750Y0322750D03*
X0322750Y0322750D03*
X0322750Y0242750D03*
X0322750Y0220750D03*
X0242750Y0220750D03*
X0242750Y0242750D03*
X0220750Y0242750D03*
X0220750Y0220750D03*
X0038750Y0140750D03*
X0038750Y0118750D03*
D18*
X0031250Y0126250D03*
X0126250Y0133250D03*
X0133250Y0126250D03*
X0228250Y0133250D03*
X0235250Y0126250D03*
X0330250Y0133250D03*
X0235250Y0228250D03*
X0228250Y0235250D03*
X0133250Y0228250D03*
X0126250Y0235250D03*
X0031250Y0228250D03*
X0031250Y0330250D03*
X0133250Y0330250D03*
X0235250Y0330250D03*
X0330250Y0235250D03*
X0330250Y0031250D03*
X0228250Y0031250D03*
X0126250Y0031250D03*
D19*
X0055750Y0341000D03*
X0305750Y0341000D03*
D20*
X0052185Y0020500D02*
X0052187Y0020619D01*
X0052193Y0020738D01*
X0052203Y0020857D01*
X0052217Y0020975D01*
X0052235Y0021093D01*
X0052256Y0021210D01*
X0052282Y0021326D01*
X0052312Y0021442D01*
X0052345Y0021556D01*
X0052382Y0021669D01*
X0052423Y0021781D01*
X0052468Y0021892D01*
X0052516Y0022001D01*
X0052568Y0022108D01*
X0052624Y0022213D01*
X0052683Y0022317D01*
X0052745Y0022418D01*
X0052811Y0022518D01*
X0052880Y0022615D01*
X0052952Y0022709D01*
X0053028Y0022802D01*
X0053106Y0022891D01*
X0053187Y0022978D01*
X0053272Y0023063D01*
X0053359Y0023144D01*
X0053448Y0023222D01*
X0053541Y0023298D01*
X0053635Y0023370D01*
X0053732Y0023439D01*
X0053832Y0023505D01*
X0053933Y0023567D01*
X0054037Y0023626D01*
X0054142Y0023682D01*
X0054249Y0023734D01*
X0054358Y0023782D01*
X0054469Y0023827D01*
X0054581Y0023868D01*
X0054694Y0023905D01*
X0054808Y0023938D01*
X0054924Y0023968D01*
X0055040Y0023994D01*
X0055157Y0024015D01*
X0055275Y0024033D01*
X0055393Y0024047D01*
X0055512Y0024057D01*
X0055631Y0024063D01*
X0055750Y0024065D01*
X0055869Y0024063D01*
X0055988Y0024057D01*
X0056107Y0024047D01*
X0056225Y0024033D01*
X0056343Y0024015D01*
X0056460Y0023994D01*
X0056576Y0023968D01*
X0056692Y0023938D01*
X0056806Y0023905D01*
X0056919Y0023868D01*
X0057031Y0023827D01*
X0057142Y0023782D01*
X0057251Y0023734D01*
X0057358Y0023682D01*
X0057463Y0023626D01*
X0057567Y0023567D01*
X0057668Y0023505D01*
X0057768Y0023439D01*
X0057865Y0023370D01*
X0057959Y0023298D01*
X0058052Y0023222D01*
X0058141Y0023144D01*
X0058228Y0023063D01*
X0058313Y0022978D01*
X0058394Y0022891D01*
X0058472Y0022802D01*
X0058548Y0022709D01*
X0058620Y0022615D01*
X0058689Y0022518D01*
X0058755Y0022418D01*
X0058817Y0022317D01*
X0058876Y0022213D01*
X0058932Y0022108D01*
X0058984Y0022001D01*
X0059032Y0021892D01*
X0059077Y0021781D01*
X0059118Y0021669D01*
X0059155Y0021556D01*
X0059188Y0021442D01*
X0059218Y0021326D01*
X0059244Y0021210D01*
X0059265Y0021093D01*
X0059283Y0020975D01*
X0059297Y0020857D01*
X0059307Y0020738D01*
X0059313Y0020619D01*
X0059315Y0020500D01*
X0059313Y0020381D01*
X0059307Y0020262D01*
X0059297Y0020143D01*
X0059283Y0020025D01*
X0059265Y0019907D01*
X0059244Y0019790D01*
X0059218Y0019674D01*
X0059188Y0019558D01*
X0059155Y0019444D01*
X0059118Y0019331D01*
X0059077Y0019219D01*
X0059032Y0019108D01*
X0058984Y0018999D01*
X0058932Y0018892D01*
X0058876Y0018787D01*
X0058817Y0018683D01*
X0058755Y0018582D01*
X0058689Y0018482D01*
X0058620Y0018385D01*
X0058548Y0018291D01*
X0058472Y0018198D01*
X0058394Y0018109D01*
X0058313Y0018022D01*
X0058228Y0017937D01*
X0058141Y0017856D01*
X0058052Y0017778D01*
X0057959Y0017702D01*
X0057865Y0017630D01*
X0057768Y0017561D01*
X0057668Y0017495D01*
X0057567Y0017433D01*
X0057463Y0017374D01*
X0057358Y0017318D01*
X0057251Y0017266D01*
X0057142Y0017218D01*
X0057031Y0017173D01*
X0056919Y0017132D01*
X0056806Y0017095D01*
X0056692Y0017062D01*
X0056576Y0017032D01*
X0056460Y0017006D01*
X0056343Y0016985D01*
X0056225Y0016967D01*
X0056107Y0016953D01*
X0055988Y0016943D01*
X0055869Y0016937D01*
X0055750Y0016935D01*
X0055631Y0016937D01*
X0055512Y0016943D01*
X0055393Y0016953D01*
X0055275Y0016967D01*
X0055157Y0016985D01*
X0055040Y0017006D01*
X0054924Y0017032D01*
X0054808Y0017062D01*
X0054694Y0017095D01*
X0054581Y0017132D01*
X0054469Y0017173D01*
X0054358Y0017218D01*
X0054249Y0017266D01*
X0054142Y0017318D01*
X0054037Y0017374D01*
X0053933Y0017433D01*
X0053832Y0017495D01*
X0053732Y0017561D01*
X0053635Y0017630D01*
X0053541Y0017702D01*
X0053448Y0017778D01*
X0053359Y0017856D01*
X0053272Y0017937D01*
X0053187Y0018022D01*
X0053106Y0018109D01*
X0053028Y0018198D01*
X0052952Y0018291D01*
X0052880Y0018385D01*
X0052811Y0018482D01*
X0052745Y0018582D01*
X0052683Y0018683D01*
X0052624Y0018787D01*
X0052568Y0018892D01*
X0052516Y0018999D01*
X0052468Y0019108D01*
X0052423Y0019219D01*
X0052382Y0019331D01*
X0052345Y0019444D01*
X0052312Y0019558D01*
X0052282Y0019674D01*
X0052256Y0019790D01*
X0052235Y0019907D01*
X0052217Y0020025D01*
X0052203Y0020143D01*
X0052193Y0020262D01*
X0052187Y0020381D01*
X0052185Y0020500D01*
D21*
X0055750Y0020500D03*
M02*
