G75*
%MOIN*%
%OFA0B0*%
%FSLAX25Y25*%
%IPPOS*%
%LPD*%
%AMOC8*
5,1,8,0,0,1.08239X$1,22.5*
%
%ADD10C,0.08200*%
%ADD11R,0.03300X0.05800*%
%ADD12C,0.00500*%
%ADD13C,0.08182*%
%ADD14C,0.13800*%
%ADD15C,0.03300*%
D10*
X0063750Y0033750D03*
X0073750Y0033750D03*
X0083750Y0033750D03*
X0093750Y0033750D03*
X0165750Y0033750D03*
X0175750Y0033750D03*
X0185750Y0033750D03*
X0195750Y0033750D03*
X0267750Y0033750D03*
X0277750Y0033750D03*
X0287750Y0033750D03*
X0297750Y0033750D03*
X0297750Y0135750D03*
X0287750Y0135750D03*
X0277750Y0135750D03*
X0267750Y0135750D03*
X0195750Y0135750D03*
X0185750Y0135750D03*
X0175750Y0135750D03*
X0165750Y0135750D03*
X0093750Y0135750D03*
X0083750Y0135750D03*
X0073750Y0135750D03*
X0063750Y0135750D03*
X0063750Y0237750D03*
X0073750Y0237750D03*
X0083750Y0237750D03*
X0093750Y0237750D03*
X0165750Y0237750D03*
X0175750Y0237750D03*
X0185750Y0237750D03*
X0195750Y0237750D03*
X0267750Y0237750D03*
X0277750Y0237750D03*
X0287750Y0237750D03*
X0297750Y0237750D03*
D11*
X0303750Y0262750D03*
X0307750Y0262750D03*
X0311750Y0262750D03*
X0209750Y0262750D03*
X0205750Y0262750D03*
X0201750Y0262750D03*
X0107750Y0262750D03*
X0103750Y0262750D03*
X0099750Y0262750D03*
X0099750Y0160750D03*
X0103750Y0160750D03*
X0107750Y0160750D03*
X0201750Y0160750D03*
X0205750Y0160750D03*
X0209750Y0160750D03*
X0303750Y0160750D03*
X0307750Y0160750D03*
X0311750Y0160750D03*
X0311750Y0058750D03*
X0307750Y0058750D03*
X0303750Y0058750D03*
X0209750Y0058750D03*
X0205750Y0058750D03*
X0201750Y0058750D03*
X0107750Y0058750D03*
X0103750Y0058750D03*
X0099750Y0058750D03*
D12*
X0101000Y0058661D02*
X0106500Y0058661D01*
X0106500Y0058250D02*
X0106500Y0059250D01*
X0101000Y0059250D01*
X0101000Y0058250D01*
X0106500Y0058250D01*
X0106500Y0059159D02*
X0101000Y0059159D01*
X0203000Y0059159D02*
X0208500Y0059159D01*
X0208500Y0059250D02*
X0208500Y0058250D01*
X0203000Y0058250D01*
X0203000Y0059250D01*
X0208500Y0059250D01*
X0208500Y0058661D02*
X0203000Y0058661D01*
X0305000Y0058661D02*
X0310500Y0058661D01*
X0310500Y0058250D02*
X0310500Y0059250D01*
X0305000Y0059250D01*
X0305000Y0058250D01*
X0310500Y0058250D01*
X0310500Y0059159D02*
X0305000Y0059159D01*
X0305000Y0160250D02*
X0310500Y0160250D01*
X0310500Y0161250D01*
X0305000Y0161250D01*
X0305000Y0160250D01*
X0305000Y0160357D02*
X0310500Y0160357D01*
X0310500Y0160855D02*
X0305000Y0160855D01*
X0208500Y0160855D02*
X0203000Y0160855D01*
X0203000Y0161250D02*
X0203000Y0160250D01*
X0208500Y0160250D01*
X0208500Y0161250D01*
X0203000Y0161250D01*
X0203000Y0160357D02*
X0208500Y0160357D01*
X0106500Y0160357D02*
X0101000Y0160357D01*
X0101000Y0160250D02*
X0106500Y0160250D01*
X0106500Y0161250D01*
X0101000Y0161250D01*
X0101000Y0160250D01*
X0101000Y0160855D02*
X0106500Y0160855D01*
X0106500Y0262250D02*
X0101000Y0262250D01*
X0101000Y0263250D01*
X0106500Y0263250D01*
X0106500Y0262250D01*
X0106500Y0262552D02*
X0101000Y0262552D01*
X0101000Y0263050D02*
X0106500Y0263050D01*
X0203000Y0263050D02*
X0208500Y0263050D01*
X0208500Y0263250D02*
X0208500Y0262250D01*
X0203000Y0262250D01*
X0203000Y0263250D01*
X0208500Y0263250D01*
X0208500Y0262552D02*
X0203000Y0262552D01*
X0305000Y0262552D02*
X0310500Y0262552D01*
X0310500Y0262250D02*
X0310500Y0263250D01*
X0305000Y0263250D01*
X0305000Y0262250D01*
X0310500Y0262250D01*
X0310500Y0263050D02*
X0305000Y0263050D01*
D13*
X0290879Y0274621D03*
X0282750Y0271254D03*
X0274621Y0290879D03*
X0282750Y0294246D03*
X0188879Y0274621D03*
X0180750Y0271254D03*
X0172621Y0290879D03*
X0180750Y0294246D03*
X0086879Y0274621D03*
X0078750Y0271254D03*
X0070621Y0290879D03*
X0078750Y0294246D03*
X0078750Y0192246D03*
X0070621Y0188879D03*
X0086879Y0172621D03*
X0078750Y0169254D03*
X0078750Y0090246D03*
X0070621Y0086879D03*
X0086879Y0070621D03*
X0078750Y0067254D03*
X0172621Y0086879D03*
X0180750Y0090246D03*
X0188879Y0070621D03*
X0180750Y0067254D03*
X0274621Y0086879D03*
X0282750Y0090246D03*
X0290879Y0070621D03*
X0282750Y0067254D03*
X0282750Y0169254D03*
X0290879Y0172621D03*
X0282750Y0192246D03*
X0274621Y0188879D03*
X0188879Y0172621D03*
X0180750Y0169254D03*
X0172621Y0188879D03*
X0180750Y0192246D03*
D14*
X0038750Y0038750D03*
X0118750Y0038750D03*
X0140750Y0038750D03*
X0220750Y0038750D03*
X0242750Y0038750D03*
X0322750Y0038750D03*
X0322750Y0118750D03*
X0322750Y0140750D03*
X0242750Y0140750D03*
X0220750Y0140750D03*
X0220750Y0118750D03*
X0242750Y0118750D03*
X0140750Y0118750D03*
X0118750Y0118750D03*
X0118750Y0140750D03*
X0140750Y0140750D03*
X0140750Y0220750D03*
X0140750Y0242750D03*
X0118750Y0242750D03*
X0118750Y0220750D03*
X0038750Y0220750D03*
X0038750Y0242750D03*
X0038750Y0322750D03*
X0118750Y0322750D03*
X0140750Y0322750D03*
X0220750Y0322750D03*
X0242750Y0322750D03*
X0322750Y0322750D03*
X0322750Y0242750D03*
X0322750Y0220750D03*
X0242750Y0220750D03*
X0242750Y0242750D03*
X0220750Y0242750D03*
X0220750Y0220750D03*
X0038750Y0140750D03*
X0038750Y0118750D03*
D15*
X0031250Y0126250D03*
X0126250Y0133250D03*
X0133250Y0126250D03*
X0228250Y0133250D03*
X0235250Y0126250D03*
X0330250Y0133250D03*
X0235250Y0228250D03*
X0228250Y0235250D03*
X0133250Y0228250D03*
X0126250Y0235250D03*
X0031250Y0228250D03*
X0031250Y0330250D03*
X0133250Y0330250D03*
X0235250Y0330250D03*
X0330250Y0235250D03*
X0330250Y0031250D03*
X0228250Y0031250D03*
X0126250Y0031250D03*
M02*
